<svg width="35" height="33" viewBox="0 0 35 33" fill="none" xmlns="http://www.w3.org/2000/svg">
<path d="M17.5 3.09375C16.4874 3.09375 15.3723 3.3717 14.4238 3.6416C13.4924 3.90747 12.8088 4.1814 12.7832 4.18945H12.749L9.60449 5.18848L9.50195 5.2207C9.43787 5.23682 9.33533 5.26501 9.0918 5.34961L8.75 5.44629V5.47852C7.83569 5.84912 6.40442 6.65076 5.57129 8.31445C4.43909 10.5703 4.375 13.374 4.375 13.374V15.4688H8.75V29.9062H26.25V15.4688H30.625V13.3096C30.625 13.3096 30.531 12.4354 30.3516 11.376C30.1721 10.3165 29.9884 9.14832 29.3604 8.21777C28.3392 6.70312 27.0703 5.93372 26.25 5.54297V5.44629L25.8057 5.31738C25.7416 5.28918 25.7544 5.3053 25.7031 5.28516L25.498 5.2207L22.251 4.18945H22.2168C22.1912 4.1814 21.5076 3.90747 20.5762 3.6416C19.6277 3.3717 18.5126 3.09375 17.5 3.09375ZM17.5 5.15625C17.9742 5.15625 19.0594 5.39392 19.9268 5.63965C20.1532 5.7041 20.1404 5.70813 20.3369 5.76855C20.2686 5.86523 20.2173 5.95789 20.1318 6.05859C19.6191 6.65881 18.9014 7.21875 17.5 7.21875C16.0986 7.21875 15.3809 6.65881 14.8682 6.05859C14.7827 5.95789 14.7314 5.86523 14.6631 5.76855C14.8596 5.70813 14.8468 5.7041 15.0732 5.63965C15.9406 5.39392 17.0258 5.15625 17.5 5.15625ZM12.5098 6.41309C12.6721 6.70715 12.8815 7.02136 13.1592 7.34766C13.9667 8.29431 15.415 9.28125 17.5 9.28125C19.585 9.28125 21.0333 8.29431 21.8408 7.34766C22.1185 7.02136 22.3279 6.70715 22.4902 6.41309L24.0625 6.92871V27.8438H10.9375V6.92871L12.5098 6.41309ZM8.75 7.79883V13.4062H6.5625C6.56677 13.3499 6.7334 10.8523 7.55371 9.2168C7.88269 8.56018 8.31848 8.10498 8.75 7.79883ZM26.25 7.95996C26.6516 8.2782 27.0959 8.69312 27.5146 9.31348C27.6898 9.57532 28.0316 10.7314 28.1982 11.6982C28.3563 12.6127 28.429 13.3257 28.4375 13.4062H26.25V7.95996Z" fill="#757575"/>
</svg>
