<svg width="24" height="22" viewBox="0 0 24 22" fill="none" xmlns="http://www.w3.org/2000/svg">
<path d="M21.4875 2.01509C18.7781 -0.263035 14.5922 0.0791523 12 2.71821C9.40782 0.0791523 5.22188 -0.267723 2.51251 2.01509C-1.01249 4.98228 -0.49687 9.81978 2.01563 12.3838L10.2375 20.7604C10.7063 21.2385 11.3344 21.5057 12 21.5057C12.6703 21.5057 13.2938 21.2432 13.7625 20.7651L21.9844 12.3885C24.4922 9.82446 25.0172 4.98696 21.4875 2.01509ZM20.3813 10.8042L12.1594 19.1807C12.0469 19.2932 11.9531 19.2932 11.8406 19.1807L3.61875 10.8042C1.90782 9.0604 1.56094 5.7604 3.96094 3.74009C5.78438 2.20728 8.59688 2.43696 10.3594 4.23228L12 5.90571L13.6406 4.23228C15.4125 2.42759 18.225 2.20728 20.0391 3.7354C22.4344 5.75571 22.0781 9.07446 20.3813 10.8042Z" fill="black"/>
</svg>
