<svg width="124" height="48" viewBox="0 0 124 48" fill="none" xmlns="http://www.w3.org/2000/svg">
<path d="M19.6733 31.8615H28.3264V16.1377H19.6733V31.8615Z" fill="#FF5F00"/>
<path d="M20.2229 24C20.2229 20.81 21.6999 17.9689 24 16.138C22.3177 14.7989 20.1954 14 17.8884 14C12.4271 14 8 18.4772 8 24C8 29.5227 12.4271 33.9999 17.8884 33.9999C20.1954 33.9999 22.3177 33.201 24 31.8619C21.6999 30.0308 20.2229 27.1899 20.2229 24Z" fill="#EB001B"/>
<path fill-rule="evenodd" clip-rule="evenodd" d="M30.1116 33.9999C35.5726 33.9999 40 29.5227 40 24C40 18.4772 35.5726 14 30.1116 14C27.8046 14 25.682 14.7989 24 16.138C26.3001 17.9692 27.7771 20.8102 27.7771 24C27.7771 27.1899 26.3001 30.031 24 31.8619C25.682 33.201 27.8046 33.9999 30.1116 33.9999ZM39.6912 30.1966V29.8085H39.591L39.4759 30.0755L39.3605 29.8085H39.2602V30.1966H39.3308V29.9038L39.4391 30.1563H39.5124L39.6206 29.9033V30.1966H39.6912ZM39.0564 30.1966V29.8747H39.185V29.8091H38.8581V29.8747H38.9864V30.1966H39.0564Z" fill="#F79E1B"/>
<circle cx="66" cy="24" r="24" fill="white"/>
<path fill-rule="evenodd" clip-rule="evenodd" d="M71.1454 19C68.7313 19 66.5739 20.2494 66.5739 22.5579C66.5739 24.1071 67.8843 24.8124 68.9713 25.3974C69.7418 25.8121 70.4001 26.1664 70.4001 26.718C70.4001 27.278 69.7574 27.7793 68.6597 27.7793C67.1019 27.7793 65.9376 27.0789 65.9376 27.0789L65.4394 29.4083C65.4394 29.4083 66.7806 30 68.5614 30C71.2008 30 73.2777 28.6892 73.2777 26.3413C73.2777 24.6604 71.8906 23.9255 70.7833 23.3388C70.0477 22.9491 69.4356 22.6248 69.4356 22.1321C69.4356 21.6934 69.9632 21.2127 71.0578 21.2127C72.2927 21.2127 73.3003 21.7221 73.3003 21.7221L73.7879 19.4723C73.7879 19.4723 72.6916 19 71.1454 19ZM49.0585 19.1698L49 19.5094C49 19.5094 50.0156 19.695 50.9304 20.0652C52.1082 20.4898 52.1921 20.7369 52.3904 21.5046L54.552 29.8249H57.4495L61.9134 19.1698H59.0225L56.1542 26.4143L54.9837 20.2735C54.8764 19.5707 54.3327 19.1698 53.6672 19.1698H49.0585ZM60.8081 29.8249L63.0759 19.1698H65.8246L63.5648 29.8249H60.8081ZM78.4511 19.1698C77.7863 19.1698 77.4341 19.5252 77.1757 20.1462L73.1369 29.8249H76.0278L76.5871 28.2118H80.1091L80.4492 29.8249H83L80.7747 19.1698H78.4511ZM79.684 26.0468L78.8271 22.0485L77.3882 26.0468H79.684Z" fill="#1434CB"/>
<ellipse cx="103.5" cy="26" rx="20.5" ry="15" fill="white"/>
<path fill-rule="evenodd" clip-rule="evenodd" d="M112.032 17.5082C110.771 16.4523 108.494 16 105.58 16H97.1221C96.527 16 96.0198 16.3182 95.9269 16.7509L92.405 33.1636C92.3717 33.3177 92.4319 33.4747 92.5699 33.5934C92.7078 33.712 92.9096 33.7804 93.1221 33.7805H98.344L97.9835 35.46C97.9544 35.5948 98.0071 35.7322 98.1277 35.8361C98.2484 35.9399 98.4249 35.9998 98.6109 36H103.012C103.533 35.9997 103.977 35.7211 104.058 35.3432L104.101 35.1786L104.929 31.315L104.983 31.1014C105.064 30.7234 105.508 30.4448 106.029 30.4445H106.687C110.951 30.4445 114.289 29.1718 115.265 25.49C115.672 23.9514 115.462 22.6673 114.384 21.7641C114.058 21.4914 113.653 21.2655 113.18 21.0809C113.511 19.5255 113.177 18.4673 112.032 17.5082V17.5082Z" fill="#009CDE"/>
<path fill-rule="evenodd" clip-rule="evenodd" d="M112.032 17.5082C110.771 16.4523 108.494 16 105.58 16H97.1221C96.527 16 96.0198 16.3182 95.9269 16.7509L92.405 33.1636C92.3717 33.3177 92.4319 33.4747 92.5699 33.5934C92.7078 33.712 92.9096 33.7804 93.1221 33.7805H98.344L99.6544 27.6682L99.6141 27.86C99.7043 27.4283 100.21 27.1094 100.805 27.1091H103.287C108.16 27.1091 111.977 25.6541 113.092 21.4455C113.124 21.3243 113.153 21.2028 113.179 21.0809C113.51 19.5255 113.177 18.4673 112.031 17.5082H112.032Z" fill="#012169"/>
<path fill-rule="evenodd" clip-rule="evenodd" d="M101.653 20.5214C101.792 20.4723 101.947 20.445 102.11 20.445H108.739C109.525 20.445 110.257 20.4827 110.927 20.5623C111.118 20.585 111.304 20.6109 111.485 20.64C111.747 20.683 112.007 20.7354 112.262 20.7968C112.578 20.8728 112.884 20.9678 113.178 21.0809C113.51 19.5255 113.177 18.4673 112.031 17.5082C110.771 16.4523 108.494 16 105.58 16H97.1221C96.527 16 96.0198 16.3182 95.9269 16.7509L92.405 33.1636C92.3717 33.3177 92.4319 33.4747 92.5699 33.5934C92.7078 33.712 92.9096 33.7804 93.1221 33.7805H98.344L101.065 21.1014C101.12 20.8414 101.348 20.6286 101.653 20.5209V20.5214Z" fill="#003087"/>
</svg>
