<svg width="30" height="29" viewBox="0 0 30 29" fill="none" xmlns="http://www.w3.org/2000/svg">
<path d="M15 0C6.72927 0 0 6.40357 0 14.274C0 22.1444 6.72927 28.548 15 28.548C23.2707 28.548 30 22.1444 30 14.274C30 6.40357 23.2707 0 15 0ZM15 2.196C22.0222 2.196 27.6923 7.59164 27.6923 14.274C27.6923 20.9564 22.0222 26.352 15 26.352C7.97776 26.352 2.30769 20.9564 2.30769 14.274C2.30769 7.59164 7.97776 2.196 15 2.196ZM15 5.49C11.8269 5.49 9.23077 7.9605 9.23077 10.98C9.23077 12.6442 10.0466 14.1239 11.2861 15.1318C8.6899 16.4142 6.92308 18.9963 6.92308 21.96H9.23077C9.23077 18.9148 11.7999 16.47 15 16.47C18.2001 16.47 20.7692 18.9148 20.7692 21.96H23.0769C23.0769 18.9963 21.3101 16.4142 18.7139 15.1318C19.9534 14.1239 20.7692 12.6442 20.7692 10.98C20.7692 7.9605 18.1731 5.49 15 5.49ZM15 7.686C16.9246 7.686 18.4615 9.14857 18.4615 10.98C18.4615 12.8114 16.9246 14.274 15 14.274C13.0754 14.274 11.5385 12.8114 11.5385 10.98C11.5385 9.14857 13.0754 7.686 15 7.686Z" fill="#B6B2B2"/>
</svg>
