<svg width="33" height="33" viewBox="0 0 33 33" fill="none" xmlns="http://www.w3.org/2000/svg">
<path d="M28.8747 14.2497C28.8747 12.2472 28.2809 10.2897 27.1684 8.62462C26.0558 6.95958 24.4745 5.66184 22.6244 4.89551C20.7743 4.12917 18.7386 3.92867 16.7745 4.31934C14.8105 4.71001 13.0064 5.67432 11.5904 7.09032C10.1744 8.50632 9.21006 10.3104 8.81939 12.2745C8.42872 14.2385 8.62923 16.2743 9.39556 18.1244C10.1619 19.9745 11.4596 21.5558 13.1247 22.6683C14.7897 23.7809 16.7473 24.3747 18.7498 24.3747C21.435 24.3745 24.0103 23.3077 25.909 21.409C27.8078 19.5102 28.8746 16.935 28.8747 14.2497V14.2497Z" stroke="black" stroke-width="0.609939" stroke-miterlimit="10"/>
<path d="M11.1958 21.8038L4.12465 28.8749" stroke="black" stroke-width="0.609939" stroke-miterlimit="10" stroke-linecap="round"/>
</svg>
