<svg width="38" height="30" viewBox="0 0 38 30" fill="none" xmlns="http://www.w3.org/2000/svg">
<g clip-path="url(#clip0_659_1943)">
<path d="M36.1492 20.3919H35.2223V14.1295C35.2223 13.3937 34.9269 12.687 34.4055 12.1656L28.6181 6.37825C28.0967 5.85687 27.39 5.56142 26.6542 5.56142H24.0995V2.78071C24.0995 1.24553 22.8539 0 21.3188 0H6.48832C4.95314 0 3.70761 1.24553 3.70761 2.78071V5.56142H0.463451C0.208553 5.56142 0 5.76997 0 6.02487V6.95177C0 7.20667 0.208553 7.41522 0.463451 7.41522H16.2208C16.4757 7.41522 16.6842 7.62378 16.6842 7.87867V8.80558C16.6842 9.06047 16.4757 9.26903 16.2208 9.26903H2.31726C2.06236 9.26903 1.85381 9.47758 1.85381 9.73248V10.6594C1.85381 10.9143 2.06236 11.1228 2.31726 11.1228H14.367C14.6219 11.1228 14.8304 11.3314 14.8304 11.5863V12.5132C14.8304 12.7681 14.6219 12.9766 14.367 12.9766H0.463451C0.208553 12.9766 0 13.1852 0 13.4401V14.367C0 14.6219 0.208553 14.8304 0.463451 14.8304H12.5132C12.7681 14.8304 12.9766 15.039 12.9766 15.2939V16.2208C12.9766 16.4757 12.7681 16.6842 12.5132 16.6842H3.70761V24.0995C3.70761 27.1698 6.19866 29.6609 9.26903 29.6609C12.3394 29.6609 14.8304 27.1698 14.8304 24.0995H22.2457C22.2457 27.1698 24.7367 29.6609 27.8071 29.6609C30.8774 29.6609 33.3685 27.1698 33.3685 24.0995H36.1492C36.659 24.0995 37.0761 23.6824 37.0761 23.1726V21.3188C37.0761 20.809 36.659 20.3919 36.1492 20.3919ZM9.26903 26.8802C7.73384 26.8802 6.48832 25.6347 6.48832 24.0995C6.48832 22.5643 7.73384 21.3188 9.26903 21.3188C10.8042 21.3188 12.0497 22.5643 12.0497 24.0995C12.0497 25.6347 10.8042 26.8802 9.26903 26.8802ZM27.8071 26.8802C26.2719 26.8802 25.0264 25.6347 25.0264 24.0995C25.0264 22.5643 26.2719 21.3188 27.8071 21.3188C29.3423 21.3188 30.5878 22.5643 30.5878 24.0995C30.5878 25.6347 29.3423 26.8802 27.8071 26.8802ZM32.4416 14.8304H24.0995V8.34212H26.6542L32.4416 14.1295V14.8304Z" fill="#757575"/>
</g>
<defs>
<clipPath id="clip0_659_1943">
<rect width="37.0761" height="29.6609" fill="white"/>
</clipPath>
</defs>
</svg>
