<svg width="20" height="21" viewBox="0 0 20 21" fill="none" xmlns="http://www.w3.org/2000/svg">
<path d="M0 11.0547L0.210938 11.2891L8.46094 19.5391L9 20.0547L9.53906 19.5391L16.2891 12.7891L16.8047 12.25L16.2891 11.7109L8.03906 3.46094L7.80469 3.25H0L0 11.0547ZM1.5 10.4219L1.5 4.75H7.17188L14.6719 12.25L9 17.9219L1.5 10.4219ZM2.25 2.5H3.75V1.75H9.86719L16.9453 8.875L16.0078 9.8125L17.0625 10.8672L18.5391 9.41406L19.0547 8.875L18.5391 8.35938L10.7344 0.460938L10.5 0.25H2.25L2.25 2.5ZM3 7C3 7.41309 3.33691 7.75 3.75 7.75C4.16309 7.75 4.5 7.41309 4.5 7C4.5 6.58691 4.16309 6.25 3.75 6.25C3.33691 6.25 3 6.58691 3 7Z" fill="#757575"/>
</svg>
