<svg width="35" height="35" viewBox="0 0 35 35" fill="none" xmlns="http://www.w3.org/2000/svg">
<path d="M15.9619 4.375L15.6201 4.68262L3.58887 16.7139L2.83691 17.5L3.58887 18.2861L13.4326 28.1299L14.2188 28.8818L15.0049 28.1299L27.0361 16.0986L27.3438 15.7568V4.375H15.9619ZM16.8848 6.5625H25.1562V14.834L14.2188 25.7715L5.94727 17.5L16.8848 6.5625ZM28.4375 7.65625V9.84375H29.5312V18.7646L19.1406 29.0869L17.7734 27.7197L16.2354 29.2578L18.3545 31.4111L19.1406 32.1631L19.8926 31.4111L31.4111 20.0293L31.7188 19.6875V7.65625H28.4375ZM21.875 8.75C21.2726 8.75 20.7812 9.24133 20.7812 9.84375C20.7812 10.4462 21.2726 10.9375 21.875 10.9375C22.4774 10.9375 22.9688 10.4462 22.9688 9.84375C22.9688 9.24133 22.4774 8.75 21.875 8.75Z" fill="#757575"/>
</svg>
