<svg width="24" height="24" viewBox="0 0 24 24" fill="none" xmlns="http://www.w3.org/2000/svg">
<path d="M20.0005 13.998H4.00049V7.99805H9.08049L7.00049 10.828L8.62049 11.998L11.0005 8.75805L12.0005 7.39805L13.0005 8.75805L15.3805 11.998L17.0005 10.828L14.9205 7.99805H20.0005V13.998ZM20.0005 18.998H4.00049V16.998H20.0005V18.998ZM9.00049 3.99805C9.2657 3.99805 9.52006 4.1034 9.70759 4.29094C9.89513 4.47848 10.0005 4.73283 10.0005 4.99805C10.0005 5.26326 9.89513 5.51762 9.70759 5.70515C9.52006 5.89269 9.2657 5.99805 9.00049 5.99805C8.73527 5.99805 8.48092 5.89269 8.29338 5.70515C8.10584 5.51762 8.00049 5.26326 8.00049 4.99805C8.00049 4.73283 8.10584 4.47848 8.29338 4.29094C8.48092 4.1034 8.73527 3.99805 9.00049 3.99805V3.99805ZM15.0005 3.99805C15.2657 3.99805 15.5201 4.1034 15.7076 4.29094C15.8951 4.47848 16.0005 4.73283 16.0005 4.99805C16.0005 5.26326 15.8951 5.51762 15.7076 5.70515C15.5201 5.89269 15.2657 5.99805 15.0005 5.99805C14.7353 5.99805 14.4809 5.89269 14.2934 5.70515C14.1058 5.51762 14.0005 5.26326 14.0005 4.99805C14.0005 4.73283 14.1058 4.47848 14.2934 4.29094C14.4809 4.1034 14.7353 3.99805 15.0005 3.99805V3.99805ZM20.0005 5.99805H17.8205C17.9305 5.68805 18.0005 5.34805 18.0005 4.99805C18.0005 4.2024 17.6844 3.43934 17.1218 2.87673C16.5592 2.31412 15.7961 1.99805 15.0005 1.99805C13.9505 1.99805 13.0405 2.53805 12.5005 3.34805L12.0005 3.99805L11.5005 3.33805C10.9605 2.53805 10.0505 1.99805 9.00049 1.99805C8.20484 1.99805 7.44178 2.31412 6.87917 2.87673C6.31656 3.43934 6.00049 4.2024 6.00049 4.99805C6.00049 5.34805 6.07049 5.68805 6.18049 5.99805H4.00049C2.89049 5.99805 2.00049 6.88805 2.00049 7.99805V18.998C2.00049 20.108 2.89049 20.998 4.00049 20.998H20.0005C21.1105 20.998 22.0005 20.108 22.0005 18.998V7.99805C22.0005 6.88805 21.1105 5.99805 20.0005 5.99805Z" fill="black"/>
</svg>
